<svg width="600" height="160" viewBox="0 4.4 158.75 41.6" xmlns="http://www.w3.org/2000/svg"><path fill="#121212" d="M0 0h600v400H0z"/><g fill-rule="evenodd" clip-rule="evenodd" fill="#525252"><path d="M150.457 45.42h-.587v-.652h.587zm-3.129 0h-.684v-1.412h.684zm-3.226 0h-.587v-.652h.587zm-1.271 0h-.587v-.652h.587zm-1.858 0h-.684v-.652h.684zm-1.369 0h-.588v-.652h.588zm-1.271 0h-1.271v-.652h.684v-2.174h.587zm-1.859 0h-.683v-.652h.683zm-1.954 0h-.587v-.652h.587zm-5.086 0h-.587v-.652h.587zm-1.271 0h-.587v-.652h.587zm-1.271 0h-.587v-.652h.587zm-114.108 0h-.683v-.652h.683zm145.984-.652h-1.27v-.762h.683v-.653h.587zm-1.856 0h-.684v-.762h.684zm-5.77 0h-.684v-.762h.684zm-1.956 0h-.587v-.762h.587zm-4.4 0h-.684v-.762h.684zm-1.271 0h-.684v-.762h.684zm-1.955 0h-.587v-.762h.587zm-1.27 0h-.686v-.762h.685zm-5.086 0h-.684v-.762h.684zm-1.955 0h-.587v-.762h.587zm-2.544 0h-1.27v-.762h1.27zm-7.038 0h-.588v-.762h.588zm-98.758 0h-.684v-.762h.684zm-8.312 0h-.683v-.762h.683zm140.9-.762h-.587v-.653h.587zm-1.858 0h-1.37v-.653h1.37zm-3.226 0h-.683v-.653h.683zm-2.542 0h-.683v-.653h.683zm-1.271 0h-1.27v-.653h1.27zm-1.956 0h-1.858v-.653h1.858zm-2.542 0h-.587v-.653h.587zm-1.858 0h-.684v-.653h.684zm-2.64 0h-.587v-1.413h2.541v.76h-1.956v.653zm-2.542 0h-1.858v-.653h1.858zm-2.542 0h-.587v-.653h.587zm-1.858 0h-.684v-.653h.684zm-1.272 0h-.683v-.653h.684zm-2.541 0h-.684v-.653h.684zm-1.271 0h-.684v-.653h.684zm-1.273 0h-1.37v-.653h1.37zm-1.955 0h-.683v-.653h.683z" style="stroke-width:.264583"/><path d="M156.912 43.355h-1.271v-.76h1.27zm-2.641 0h-.587v-.76h.587zm-1.271 0h-.587v-.76h.588zm-1.272 0h-1.858v-.76h1.858zm-2.542 0h-.587v-.76h.587zm-1.858 0h-.684v-.76h.684zm-4.497 0h-.587v-1.412h2.542v.653h-1.955zm-7.627 0h-.684v-.76h.684zm-1.955 0h-.587v-1.412h1.27v.653h-.683zm-1.271 0h-.587v-.76h.587zm-1.858 0h-.684v-.76h.684zm-1.957 0h-.587v-.76h.587zm-35.688 0h-.684v-.76h.684zm-6.357 0h-.684v-.76h.684zm-67.663 0h-.587v-.76h.587zm-6.941 0h-.684v-.76h.684zm147.254-.759h-.587v-.653h.587z" style="stroke-width:.264583"/><path d="M157.497 42.596h-.587V40.53h.587zm-1.858 0h-1.37v-.653h1.37zm-3.226 0h-.683v-1.413h1.956v.762h-1.27v.653zm-2.542 0h-.683v-.653h.683zm-1.956 0h-.587v-.653h.587zm-1.271 0h-.587v-.653h.587zm-7.628 0h-.683v-.653h.683zm-1.954 0h-.588v-1.413h.588zm-1.272 0h-.586v-.653h.587zm-6.941 0h-.684v-.653h.684zm-1.957 0h-.587v-.653h.587zm-1.271 0h-.683v-.653h.683zm-1.954 0h-.588v-.653h.588zm-2.544 0h-.587v-.653h.587zm-1.271 0h-.587v-.653h.587zm-93.085 0h-.588v-.653h.588zm129.459-.653h-.587v-.762h.587zm-7.04 0h-1.271v-.762h1.27zm-3.813 0h-.587v-.762h.587zm-3.129 0h-.684v-.762h.684zm-1.271 0h-.684v-.762h.684zm-1.369 0h-.588v-.762h.588zm-5.084 0h-.587v-.762h.587zm-2.542 0h-1.27v-.762h1.27zm-1.858 0h-1.271v-.762h.587v-.652h.684zm-2.542 0h-.684v-1.412h1.271v.652h-.587v.762zm-2.64 0h-.588v-.762h.588zm-2.542 0h-.587v-.762h.587zm-29.336 0h-.587v-.762h.587zm65.708-.762h-.587v-.652h.587zm-3.813 0h-1.27v-.652h1.27zm-3.227 0h-.587v-.652h.587zm-1.271 0h-1.271v-.652h.684v-.76h.587zm-3.129 0h-1.955v-.652h1.955zm-2.542 0h-1.271v-.652h1.27zm-1.955 0h-.587V39.77h.587zm-1.271 0h-.587v-.652h.587zm-1.27 0h-.686v-.652h.685zm-1.957 0h-1.271v-.652h1.27zm-2.543 0h-1.27v-.652h.684v-1.413h.587zm-2.541 0h-1.271v-.652h1.27zm-6.944 0h-1.37v-.652h1.37zm-3.225 0h-.684V39.77h.683zm-1.957 0h-.587v-.652h.587zm-91.131 0h-.683v-.652h.683zm-6.452 0h-.588v-.652h.587zm-2.543 0h-.587v-.652h.587zm-5.671 0h-.683v-.652h.683z" style="stroke-width:.264583"/><path d="M158.183 40.53h-.684v-.76h.684zm-1.957 0h-1.27v-.76h1.27zm-2.542 0h-1.27v-.76h1.27zm-5.084 0h-1.27v-.76h.587v-.652h1.27v.653h-.586zm-3.227 0h-.587v-.76h.587zm-6.357 0h-.683v-.76h.683zm-1.954 0h-.588v-.76h.588zm-2.542 0h-.587v-.76h.587zm-3.13 0h-1.27v-.76h1.27zm-2.541 0h-.684v-.76h.684zm-4.499 0h-.683v-1.412h.683zm-4.498 0h-.587v-.76h.587zm-84.774 0h-.684v-.76h.684zm-8.311 0h-.588v-.76h.588zm-10.17 0h-.683v-.76h.683zm140.9-.761h-1.27v-.653h1.27zm-2.542 0h-1.27v-.653h1.27zm-3.227 0h-1.271v-.653h1.27zm-4.4 0h-.684v-.653h.684zm-1.271 0h-.684v-.653h.684zm-1.955 0h-1.27v-.653h1.27zm-1.858 0h-3.226v-.653h3.226zm-4.498 0h-.684v-1.413h1.27v.762h-.586v.653zm-4.497 0h-1.271v-.653h1.27zm-3.815 0h-.587v-.653h.587zm-2.542 0h-1.956v-.653h1.956zm-4.496 0h-.587v-.653h.587zm-1.273 0h-.587v-.653h.587zm-2.542 0h-.587v-.653h.587zm-1.858 0h-.684v-.653h.684zm-21.706 0h-.684v-.653h.684zm-82.918 0h-.587v-.653h.587zm-1.856 0h-.684v-.653h.684zm148.525-.651h-1.27v-.762h1.27zm-3.129 0h-.684v-.762h.684zm-3.226 0h-.683v-.762h.683zm-2.542 0h-.683v-.762h.683zm-3.227 0h-.587v-.762h.587zm-1.858 0h-.684v-.762h.684zm-1.955 0h-.587v-.762h.587zm-6.357 0h-.683v-.762h.683zm-1.954 0h-1.271v-.762h1.27zm-2.542 0h-.587v-.762h.587zm-1.273 0h-1.27v-.762h1.27zm-2.542 0h-1.27v-.762h1.27z" style="stroke-width:.264583"/><path d="M124.938 39.118h-.588v-.762h.588zm-1.271 0h-1.271v-.762h1.27zm-1.858 0h-.684v-.762h.684zm-1.957 0h-.587v-.762h.587zm-1.858 0h-.684v-.762h.684zm-18.479 0h-.684v-.762h.684zm-8.997 0h-.587v-.762h.587zm-3.129 0h-.684v-.762h.684zm-62.48 0h-.684v-.762h.684zm132.588-.762h-.587v-.652h.587zm-1.271 0h-.587v-.652h.587zm-1.271 0h-.684v-.652h.684zm-1.271 0h-1.27v-.652h1.27zm-1.956 0h-1.858v-.652h1.858zm-3.128 0h-1.27v-.652h1.27zm-3.227 0h-.587v-1.412h1.27v.76h-.683zm-1.271 0h-.587v-.652h.587zm-2.542 0h-1.956v-.652h1.956zm-2.544 0h-.683v-.652h.683zm-1.954 0h-.588v-.652h.588zm-1.858 0h-.684v-1.412h1.27v.76h-.586zm-2.542 0h-.684v-1.412h.684zm-1.272 0h-.683v-1.412h.684zm-1.956 0h-.587v-.652h.587zm-3.129 0h-1.37v-.652h1.37zm-5.767 0h-.684v-1.412h.684zm-1.957 0h-.587v-.652h.587zm-2.541 0h-.588v-.652h.587zm-85.46 0h-.588v-.652h.587zm-10.17 0h-.684v-.652h.684zm-3.813 0h-.683v-.652h.683zm140.315-.652h-.684v-.76h.684zm-1.273 0h-.684v-.76h.684zm-1.368 0h-.587v-.76h.587zm-1.858 0h-.683v-.76h.683zm-2.542 0h-1.27v-.76h1.27zm-2.543 0h-.684v-.76h.684zm-4.497 0h-1.27v-.76h.683v-.652h2.542v.652h-1.955zm-4.498 0h-1.271v-.76h1.27zm-4.4 0h-.684v-.76h.684zm-5.084 0h-2.542v-.76h2.542zm-4.499 0h-3.227v-.76h3.227zm-5.083 0h-.684v-.76h.684zm-1.957 0h-.587v-2.825h1.27v.653h-.683v2.174zm-3.13 0h-.683v-.76h.684zm-1.954 0h-.587v-.76h.587zm-19.751 0h-.684v-.76h.684zm-51.628 0h-.684v-.76h.684zm-4.498 0h-.684v-.76h.684zm-8.899 0h-.683v-.76h.684zm-9.582 0h-.684v-.76h.684zm-4.498 0h-.587v-.76h.587zm-1.856 0h-.684v-.76h.684zm145.983-.76h-.587v-.652h.587zm-4.497 0h-.587v-.652h.588zm-1.858 0h-.684v-.652h.684zm-3.227 0h-.587v-.652h.587zm-1.271 0h-.587v-.652h.587zm-5.671 0h-1.956v-.652h1.27v-.762h.684v-.653h.587v1.413h-.587v.652zm-4.499 0h-.683v-.652h.683z" style="stroke-width:.264583"/><path d="M133.249 36.944h-.587v-1.412h1.27v.762h-.683v.652zm-3.129 0h-1.271v-.652h1.271zm-4.499 0h-.683v-1.412h.683zm-4.498 0h-.587v-.652h.587zm-2.542 0h-.587v-.652h.587zm-2.541 0h-.588v-.652h.587zm-1.272 0h-.587v-.652h.587zm-15.938 0h-.588v-.652h.587zm-3.813 0h-.684v-.652h.684zm-70.108 0h-.684v-.652h.684zm124.962-.652h-.683v-.762h.683zm-1.271 0h-.683v-.762h.684zm-1.272 0h-.684v-.762h.684zm-1.271 0h-1.271v-.762h1.27zm-7.04 0h-2.543v-.762h2.542zm-3.813 0h-.684v-2.174h.684zm-3.226 0h-1.858v-.762h1.27v-.653h.588zm-3.129 0h-.684v-.762h.684zm-1.271 0h-1.27v-.762h1.27zm-3.228 0h-.683v-1.413h.683zm-1.27 0h-1.271v-.762h.587v-2.065h1.27v.653h-.587zm-2.542 0h-.684v-.762h.684zm-1.271 0h-.684v-1.413h.684zm-5.77 0h-1.27v-.762h1.27zm-1.857 0h-.685v-1.413h.684zm-3.228 0h-.684v-.762h.684zm-5.084 0h-.684v-.762h.684zm-1.957 0h-.587v-.762h.587zm-61.209 0h-.587v-.762h.587zm-9.582 0h-.588v-.762h.587zm-10.17 0h-.684v-.762h.684zm-3.813 0h-.683v-.762h.683zm142.171-.76h-.587v-.653h.587zm-1.856 0h-.684v-.653h.684zm-1.273 0h-.684v-.653h.684zm-1.955 0h-.683v-.653h.683zm-1.271 0h-.683v-.653h.683zm-8.311 0h-1.858v-.653h1.858z" style="stroke-width:.264583"/><path d="M139.604 35.532h-.588v-.653h.588zm-3.13 0h-.683v-.653h.683zm-7.04 0h-.587V34.12h.587zm-1.271 0h-.587v-.653h.587zm-1.858 0h-.684v-.653h.684zm-4.496 0h-1.271v-.653h1.27zm-5.769 0h-2.543v-.653h2.542zm-9.583 0h-.587v-.653h.587zm-10.853 0h-.587v-.653h.587zm-3.814 0h-.586v-.653h.587zm-70.109 0h-.684v-.653h.684zm-10.167 0h-.684v-.653h.684zm142.757-.652h-.587v-.76h.587zm-3.129 0h-.684v-.76h.684zm-1.271 0h-.683v-.76h.683zm-1.956 0h-.587v-.76h.587zm-3.129 0h-.684v-.76h.684zm-2.542 0h-.684v-.76h.684z" style="stroke-width:.264583"/><path d="M140.29 34.88h-.686v-.76h.685zm-1.274 0h-1.27v-.76h.587v-.653h.683zm-1.954 0h-.588v-1.413h.588zm-3.129 0h-1.271v-.76h1.27zm-3.228 0h-.587v-.76h.587zm-3.813 0h-.587v-.76h.587zm-1.954 0h-.588v-1.413h1.271v-.762h.684v1.413h-1.37v.76zm-5.086 0h-.587v-1.413h2.542v.653h-1.957v.76zm-1.271 0h-.587v-.76h.587zm-8.898 0h-.684v-.76h.684zm-17.208 0h-.684v-.76h.684zm-73.335 0h-.685v-.76h.684zm139.628-.76h-.587v-.653h.587zm-1.271 0h-.587v-.653h.587zm-1.858 0h-.684v-.653h.684zm-3.226 0h-.683v-.653h.683zm-5.769 0h-1.271v-.653h1.271zm-10.854 0h-.586v-.653h.587zm-1.27 0h-.587v-.653h.587zm-1.858 0h-.684v-.653h.684zm-1.272 0h-.683v-.653h.684zm-1.27 0h-.684v-.653h.684zm-1.957 0h-1.27v-.653h1.27zm-10.169 0h-1.955v-.653h1.955zm-2.542 0h-1.271v-.653h1.271zm-1.955 0h-2.542v-.653h2.542zm-3.227 0h-.587v-.653h.587zm-1.271 0h-.587v-.653h.587zm-1.271 0h-.587v-.653h.587zm-1.271 0h-.587v-1.413h.587zm-1.858 0h-.684v-.653h.684zm-7.041 0h-.587v-.653h.587zm-48.498 0h-.587v-.653h.587zm-5.67 0h-.684v-.653h.683zm-9.583 0h-.684v-.653h.684zm-12.126 0h-.684v-.653h.684zm-5.767 0h-.588v-.653h.588zm140.312-.653h-.587v-.762h.587zm-4.498 0h-.587v-.762h.587zm-1.857 0h-.683v-.762h.683zm-1.271 0h-1.27v-.762h1.27zm-3.814 0h-.684v-.762h.684zm-1.955 0h-.587v-.762h.587zm-1.858 0h-.684v-.762h.684zm-1.369 0h-.588v-.762h.588zm-3.13 0h-.683v-.762h.683zm-1.27 0h-.684v-.762h.684zm-1.271 0h-.684v-.762h.684zm-1.955 0h-.587v-.762h.587zm-1.273 0h-.587v-.762h.587zm-1.856 0h-.684v-.762h.684zm-4.499 0h-.683v-.762h.683zm-1.954 0h-.587v-.762h.587zm-3.129 0h-.684v-1.412h.684zm-3.227 0h-.588v-.762h.587zm-1.86 0h-.683v-.762h.684zm-3.225 0h-.685v-.762h.685zm-8.898 0h-.684v-.762h.684zm-2.542 0h-.684v-.762h.684zm-6.455 0h-.587v-.762h.587zm-38.818 0h-.683v-.762h.683zm-24.25 0h-.683v-.762h.683zm-3.812 0h-.684v-.762h.683zm-2.64 0h-.588v-.762h.587zm134.643-.76h-.684v-.652h.684zm-1.271 0h-.684v-.652h.684zm-1.957 0h-.684v-.652h.684zm-1.271 0h-1.27v-.652h1.27z" style="stroke-width:.264583"/><path d="M150.457 32.707h-.587v-.652h.587zm-3.813 0h-.587v-.652h.587zm-3.129 0h-.684v-.652h.684zm-1.271 0h-.684v-.652h.684zm-5.182 0h-.588v-.652h.588zm-4.4 0h-.684v-.652h.684zm-1.272 0h-.683v-1.412h.684zm-1.956 0h-.587v-.652h.587zm-1.271 0h-.587v-.652h.587zm-1.271 0h-.587v-1.412h.587zm-3.812 0h-.684v-.652h.683zm-1.957 0h-1.271v-.652h1.27zm-3.129 0h-1.271v-1.412h.587v.76h.684zm-2.542 0h-1.271v-.652h1.271zm-2.542 0h-.684v-.652h.684zm-1.27 0h-.685v-1.412h.684zm-1.957 0h-1.271v-.652h1.27zm-1.955 0h-.587v-.652h.587zm-3.129 0h-.684v-.652h.684zm-1.955 0h-.587v-.652h.587zm-7.04 0h-.587v-.652h.587zm-51.628 0h-.587v-.652h.587zm-7.04 0h-.587v-.652h.587zm-1.858 0h-.684v-.652h.684zm-8.311 0h-.588v-.652h.588zm-10.17 0h-.683v-.652h.683zm-4.498 0h-.587v-.652h.587zm142.172-.652h-.587v-.76h.587zm-2.543 0h-.587v-.76h.587zm-3.128 0h-.683v-.76h.684zm-3.227 0h-.587v-.76h.587zm-4.4 0h-.684v-.76h.684zm-1.957 0h-1.27v-.76h1.27zm-4.496 0h-.587v-.76h.587zm-1.271 0h-.587v-.76h.587zm-3.129 0h-.684v-.76h.684zm-1.271 0h-.684v-.76h.684zm-3.228 0h-2.542v-.76h2.542zm-3.812 0h-.684v-.76h.684zm-3.228 0h-.587v-.76h.587zm-2.541 0h-.588v-.76h-1.27v-.653h1.857zm-2.543 0h-.587v-.76h-1.27v-.653h1.27v-.76h.587zm-3.227 0h-.587v-.76h.587zm-1.858 0h-.684v-.76h.684zm-1.955 0h-.587v-.76h.587zm-1.271 0h-.587v-1.413h.587zm-5.086 0h-.587v-.76h.587zm-39.501 0h-.684v-.76h.684zm-30.607 0h-.683v-.76h.683zm127.505-.76h-.587v-.653h.587zm-2.542 0h-.684v-.653h.684zm-4.498 0h-.587v-.653h.587z" style="stroke-width:.264583"/><path d="M149.186 31.295h-.587v-.653h.587zm-1.858 0h-.684v-.653h.684zm-1.271 0h-.684v-.653h.684zm-1.955 0h-1.27v-.653h1.27zm-2.542 0h-.587v-.653h.587zm-1.956 0h-.588v-.653h.588zm-3.13 0h-1.27v-.653h1.27zm-8.896 0h-.684v-.653h.684zm-1.273 0h-.684v-.653h.684zm-3.225 0h-1.271v-.653h1.27zm-1.957 0h-2.542v-.653h2.542zm-3.129 0h-.684v-.653h.684zm-7.039 0h-.685V29.12h.685zm-1.956 0h-.587v-.653h.587zm-1.859 0h-.683v-.653h.684zm-3.225 0h-.587v-.653h.587zm-5.671 0h-.684v-.653h.684zm-52.997 0h-.587v-.653h.587zm-8.311 0h-.587v-.653h.587zm-4.4 0h-.684v-.653h.684zm123.103-.653h-.684v-.76h.684zm-3.226 0h-.683v-.76h.683zm-1.271 0h-.684v-.76h.684zm-6.356 0h-.684v-.76h.684zm-2.542 0h-.684v-.76h.684zm-4.498 0h-.684v-.76h.684zm-3.226 0h-.587v-.76h.587zm-1.271 0h-.587v-.76h.587zm-1.271 0h-.587v-.76h.587zm-1.858 0h-.684v-.76h.684zm-5.77 0h-1.27v-.76h1.27zm-2.541 0h-.684v-.76h.684zm-3.228 0h-.587v-.76h.587zm-1.858 0h-.684v-.76h.684zm-7.04 0h-.684v-.76h.684zm-1.955 0h-.587v-.76h.587zm-1.858 0h-.684v-.76h.684zm-3.813 0h-.684v-.76h.684zm-52.997 0h-.587v-.76h.587zm-6.357 0h-.587v-.76h.587zm-17.794 0h-.684v-.76h.684zM153 29.882h-.587v-.761h.588zm-3.129 0h-.683v-.761h.683zm-2.543 0h-.684v-.761h.684zm-1.271 0h-.684v-.761h.684zm-5.084 0h-.684v-.761h.684zm-1.369 0h-.588v-.761h.588zm-1.271 0h-.587v-.761h.587zm-1.859 0h-.683v-.761h.683zm-7.625 0h-.684v-.761h.684zm-1.271 0h-.684v-.761h.684zm-2.64 0h-.588v-.761h.588zm-2.542 0h-.587v-.761h.587zm-1.858 0h-.684v-.761h.684zm-1.271 0h-.684v-.761h.684zm-1.957 0h-.587v-.761h.587zm-1.27 0h-.588v-.761h.587zm-1.86 0h-.683v-.761h.684zm-1.954 0h-.587v-.761h.587zm-3.227 0h-1.271v-.761h1.27zm-2.542 0h-.587v-.761h.587zm-3.129 0h-1.271v-.761h1.271zm-65.121 0h-.587v-.761h.587zm-10.757 0h-.683v-.761h.684zm-14.08 0h-.587v-.761h.587zm143.542-.762h-1.271v-.652h1.27zm-1.957 0h-.684v-.652h.684zm-1.271 0h-.683v-.652h.683zm-1.956 0h-.587v-.652h.587zm-3.813 0h-.587v-.652h.587zm-3.129 0h-.684v-.652h.684zm-1.271 0h-.684v-.652h.684zm-1.271 0h-.684v-.652h.684zm-5.182 0h-.588v-.652h.588zm-2.542 0h-.587v-1.412h.587zm-1.271 0h-.587v-.652h.587zm-1.271 0h-.587v-.652h.587zm-1.273 0h-.587v-.652h.587zm-4.4 0h-.684v-.652h.684zm-5.182 0h-.587v-.652h.587zm-1.271 0h-.587v-.652h.587zm-1.858 0h-.684v-.652h.684zm-1.271 0h-.684v-.652h.684zm-1.955 0h-.587v-2.064h.587zm-1.271 0h-1.27v-.652h1.27zm-3.814 0h-.684v-.652h.684zm-2.543 0h-.683v-.652h.684zm-1.954 0h-.587v-.652h.587zm-1.271 0h-.587v-.652h.587zm-2.544 0h-.587v-.652h.587zm-1.856 0h-.684v-.652h.684zm-4.498 0h-.684v-.652h.684zm-34.418 0h-.684v-.652h.684zm-44.002 0h-.683v-.652h.683zm141.586-.652h-.684v-.76h.684zm-7.726 0h-.587v-.76h.587zm-4.4 0h-.684v-.76h.684zm-1.955 0h-.587v-.76h.587zm-3.812 0h-.686v-.76h.685zm-12.127 0h-.587v-.76h.587zm-4.496 0h-.588v-.76h.588zm-5.086 0h-.587v-.76h.587zm-1.271 0h-.587v-.76h.587zm-1.27 0h-.588v-1.412h.587zm-4.4 0h-1.958v-.76h1.957zm-3.228 0h-.684v-.76h.684zm-1.955 0h-.587v-.76h.587zm-1.858 0h-.684v-.76h.684zm-53.584 0h-.684v-.76h.684zm-20.435 0h-.588v-.76h.587zm122.42-.76h-.587v-.652h.588zm-3.814 0h-1.271v-.652h1.27zm-1.858 0h-.684v-.652h.684zm-5.084 0h-.684v-.652h.684zm-1.271 0h-.684v-.652h.684zm-2.64 0h-1.271v-.652h1.27zm-2.543 0h-.586v-.652h.587zm-3.128 0h-.684v-.652h.684zm-3.813 0h-.684v-.652h.684zm-15.352 0h-1.27v-.652h.683v-.762h.587zm-4.498 0h-.587v-.652h.587zm-1.859 0h-.683v-1.412h1.271v.762h-.587v.652zm-1.27 0h-1.271v-.652h1.27zm-2.542 0h-1.271v-.652h1.271zm-2.542 0h-.684v-.652h.684zm-1.271 0h-.684v-.652h.684zm-58.082 0h-.587v-.652h.587zm113.522-.652h-.684v-.762h.684zm-2.542 0h-.683v-.762h.683zm-1.271 0h-.684v-.762h.684zm-6.356 0h-.684v-.762h.684zm-5.77 0h-.683v-.762h.683zm-2.542 0h-.683v-.762h.683zm-6.354 0h-.684v-.762h.684zm-7.724 0h-.587v-.762h.587zm-3.815 0h-.587v-.762h.587zm-6.941 0h-.685v-.762h.684zm-1.37 0h-1.271v-.762h1.27zm-6.355 0h-.587v-.762h.587z" style="stroke-width:.264583"/><path d="M101.371 27.056h-.587v-.762h.587zm-51.04 0h-.587v-.762h.587zm-6.355 0h-.587v-.762h.587zm-5.769 0h-.587v-.762h.587zm-6.942 0h-.684v-.762h.684zm116.063-.76h-.684v-.653h.684zm-4.497 0h-.587v-.653h.587zm-1.271 0h-.587v-.653h.587zm-1.27 0h-.686v-.653h.685zm-6.357 0h-.684v-.653h.684zm-1.955 0h-.587v-.653h.587zm-12.126 0h-.587v-.653h.587zm-3.129 0h-.684v-.653h.684zm-2.543 0h-.683v-.653h.684zm-1.954 0h-.587v-.653h.587zm-1.271 0h-.685v-.653h.685zm-2.543 0h-.684v-.653h.684zm-2.542 0h-.684v-.653h.684zm-3.813 0h-.684v-.653h.684zm-3.227 0h-.588v-.653h.587zm-35.689 0h-.684v-.653h.684zm95.042-.653h-.684v-.76h.684zm-1.957 0h-.587v-.76h.587zm-1.955 0h-.587v-.76h.587zm-1.271 0h-.587v-.76h.588zm-4.4 0h-.683v-.76h.684zm-3.227 0h-.587v-.76h.587zm-8.899 0h-.683v-.76h.683zm-1.27 0h-.684v-.76h.684zm-5.084 0h-.684v-.76h.684zm-5.182 0h-.588v-.76h.588zm-3.129 0h-.684v-.76h.684zm-12.126 0h-1.271v-.76h1.27zm-3.226 0h-.587v-.76h.587zm-1.271 0h-1.858v-.76h1.858zm-2.542 0h-.587v-.76h.587zm-2.544 0h-.587v-.76h.587zm-67.564 0h-.684v-.76h.684zm-10.855 0h-.684v-.76h.684zm128.776-.759h-.587v-.653h.587zm-7.626 0h-.587v-.653h.587zm-3.227 0h-.588v-.653h.588zm-2.542 0h-.588v-.653h.588zm-26.792 0h-.587v-.653h.587zm-2.542 0h-1.271v-.653h1.271z" style="stroke-width:.264583"/><path d="M105.87 24.884h-.684v-.653h.684zm-2.542 0h-.684v-.653h.684zm-1.957 0h-.587v-.653h.587zm-3.127 0h-.684v-.653h.684zm-3.227 0h-.684v-.653h.684zm-49.77 0h-.587v-.653h.587zm-10.169 0h-.684v-.653h.684zm113.522-.653h-.683v-.762h.684zm-2.543 0h-.684v-.762h.684zm-2.542 0h-.684v-.762h.684zm-12.125 0h-.683v-.762h.684zm-1.956 0h-.587v-.762h.587zm-14.666 0h-.587v-.762h.587zm-3.128 0h-.685v-.762h.684zm-3.228 0h-.684v-.762h.684zm-4.497 0h-.587v-.762h.587zm-1.858 0h-.684v-.762h.684zm-1.271 0h-.684v-.762h.684zm-1.271 0h-.684v-.762h.684zm-3.911 0h-.587v-.762h.587zm-44.002 0h-.587v-.762h.587zm99.54-.76h-.684v-.652h.684zm-10.852 0h-.686v-.652h.685zm-2.544 0h-.684v-.652h.684zm-3.226 0h-.587v-.652h.587zm-1.271 0h-.587v-.652h.587z" style="stroke-width:.264583"/><path d="M108.999 23.471h-.587v-.652h.587zm-2.542 0h-2.542v-.652h2.542zm-3.129 0h-1.271v-.652h1.271zm-3.228 0h-.587v-.652h.587zm57.397-.652h-.587v-.76h.587zm-1.858 0h-.684v-.76h.684zm-12.808 0h-.587v-.76h.587zm-1.858 0h-.684v-.76h.684zm-1.957 0h-1.27v-.76h1.27zm-37.645 0h-1.27v-.76h1.27zm-2.541 0h-1.86v-.76h1.858zm-2.543 0h-.683v-.76h.683zm-55.44 0h-.684v-.76h.684zm-2.64 0h-.587v-.76h.587zm-15.253 0h-.686v-.76h.686zM153 22.059h-.587v-.653h.588zm-4.4 0h-.683v-.653h.684zm-1.956 0h-.587v-.653h.587zm-1.271 0h-.587v-.653h.587zm-9.583 0h-.586v-.653h.587zm-10.852 0h-.588v-.653h.588zm-21.023 0h-1.271v-.653h1.271zm-4.4 0h-.684v-.653h.684zm58.668-.653h-.684v-.762h.684zm-21.709 0h-.683v-.762h.683zm-5.769 0h-.587v-.762h.587zm-25.519 0h-.587v-.762h.587zm-3.129 0h-2.542v-.762h2.542zm-3.813 0h-.684v-.762h.684zm-2.64 0h-.587v-.762h.587zm56.809-.762h-.683v-.652h.683zm-3.227 0h-.587v-.652h.587zm-5.084 0h-.587v-.652h.587zm-1.271 0h-.587v-.652h.587zm-1.858 0h-.684v-.652h.684zm-1.369 0h-.588v-.652h.588zm-40.774 0h-.588v-.652h.587zm-1.859 0h-.684v-1.412h.684Zm-3.911 0h-.587v-.652h.587zm-36.96 0h-.587v-.652h.588zm-9.582 0h-.587v-.652h.587zm110.979-.65h-.587v-.76h.587zm-23.564 0h-.684v-.76h.684zm-1.271 0h-.684v-.76h.684zm-31.876 0h-.684v-.76h.684zm-1.271 0h-.684v-.76h.684z" style="stroke-width:.264583"/><path d="M98.244 19.994h-.684v-1.412h.684zm-2.64 0h-1.858v-.76h1.27v-.652h.588zm46.64-.762h-.684v-.652h.684zm-5.182 0h-.588v-.652h.588zm-1.272 0h-.586v-.652h.587zm-10.852 0h-.588v-.652h.588zm13.395-.651h-.587v-.761h.587zm-8.899 0h-.587v-.761h.587zm-24.248 0h-.587v-.761h.587zm-2.542 0h-.587v-.761h.587zm-5.673 0h-1.37v-.761h1.37Zm-3.225 0H91.79v-.761h1.955Zm-2.542 0h-.684v-.761h.684zm54.169-.761h-.587v-.653h.587zm-5.769 0h-.588v-.653h.588zm-6.355 0h-.587v-.653h.587zm-34.419 0h-.588v-.653h.587zm-3.226 0h-.587v-.653h.587zm-1.271 0h-.587v-1.413h.587zm42.729-.65h-.588v-.76h.588zm-2.542 0h-.587v-.76h.587zm-3.815 0h-.587v-.76h.587zm-5.084 0h-.683v-.76h.683zm-29.334 0h-.683v-.76h.683zm-3.227 0h-.587v-.76h.587zm-1.856 0h-.684v-.76h.684zm-1.271 0h-.684v-.76h.684zm-1.273 0h-.684v-.76h.684zm57.397-.763h-.684v-.652h.684zm-5.767 0h-.686v-.652h.685zm-47.815 0h-1.271v-.652h1.27zm-1.957 0h-.587v-.652h.587zm51.726-.65h-.684v-.762h.684zm-10.266 0h-.587v-.762h.587zm-37.645 0h-.587v-.762h.587z" style="stroke-width:.264583"/><path d="M93.06 15.757h-.587v-.762h.587zm-4.4 0h-1.27v-.762h1.27zm48.402-.762h-.588v-.652h.588zm-1.272 0h-.586v-.652h.587zm-1.27 0h-.587v-.652h.587zm-1.271 0h-.587v-.652h.587zm-41.459 0h-3.128v-.652h3.129zm-5.672 0h-.684v-.652h.684zm56.713-.653h-.587v-.76h.587zm-12.126 0h-.587v-.76h.587zm-3.127 0h-.684v-.76h.684zm-34.518 0h-.587v-.76h.587zm-4.4 0h-.684v-.76h.684zm-1.271 0h-1.27v-.76h1.27zm-2.542 0h-.684v-1.521h.684v-.653h.587v1.413h-.587zm52.899-.759h-.684v-.76h.684z" style="stroke-width:.264583"/><path d="M128.163 13.583h-.587v-.76h.587zm-38.916 0h-.587v-.76h.587zm-1.271 0h-.587v-.76h.587Zm-4.4 0h-.684v-.76h.684zm61.21-.76h-.684v-.653h.684zm-5.77 0h-.683v-.653h.683zm-6.354 0h-.684v-.653h.684zm-1.272 0h-.683v-.653h.684zm-40.872 0h-.587v-.653h.587zm-1.858 0h-.684v-.653h.684zm-1.955 0h-.587V11.41h.587zm-4.4 0h-.683v-.653h.683zm52.215-.653h-.587v-.762h.587zm-1.271 0h-.587v-.762h.587zm-6.944 0h-.684v-.762h.684zm-42.142 0h-.587v-.762h.587Zm-1.271 0h-.587v-.762h.587zm-1.956 0h-.587v-.762h.587zm-1.271 0h-.587v-.762h.587zm50.455-.762h-.684v-.652h.684zm-7.04 0h-.684v-.652h.683zm-35.691 0h-.684v-.652h.684zm-1.271 0h-.684v-.652h.684zm-1.271 0h-.684v-.652h.684zm-1.271 0h-.684v-.652h.684zm-1.954 0h-.686v-.652h.686zm54.168-.65h-.586v-.76h.587zm-1.27 0h-.587v-.76h.587zm-3.13 0h-.683v-.76h.684zm-3.227 0h-.587v-.76h.587zm-44 0h-.587v-.76h.587z" style="stroke-width:.264583"/><path d="M82.892 10.758h-1.27v-.76h.683v-.652h.587zm-1.956 0h-.587v-.76h.587zm-1.271 0h-1.271v-.76h1.271zm72.748-.762h-.683v-.652h.683zm-15.351 0h-.588v-.652h.588zm-5.084 0h-.587v-.652h.587zm-7.04 0h-.588v-.652h.588zm-39.504 0h-1.27v-.652h1.27zm-3.812 0h-.686v-.652h.686zm-1.273 0h-.684V8.584h.684zm-2.542 0h-.684v-.652h.684zm66.979-.65h-.684v-.762h.684zm-12.124 0h-.684v-.762h.684z" style="stroke-width:.264583"/><path d="M125.621 9.346h-.683v-.762h.683zm-5.083 0h-.684v-.762h.684zm-42.144 0h-.587v-.762h.587zm-1.271 0h-.587v-.762h.587zm-1.858 0h-.684v-.762h.684zm65.025-.762h-.686V7.93h.685zm-5.77 0h-.587V7.93h.587zm-5.086 0h-.587V7.93h.587zm-1.271 0h-.587V7.93h.587zm-1.858 0h-.684V7.93h.684zm-3.909 0h-.587V7.93h.587zm-4.402 0h-.684V7.93h.684zm-33.831 0h-.587V7.93h.587Zm-2.541 0H80.35V7.93h1.27zm-2.544 0h-.684V7.93h.684zm-3.226 0h-.587V7.93h.587zm56.81-.651h-.684v-.76h.684zm-9.582 0h-.684v-.76h.683zm-1.957 0h-.587v-.76h.587zm-1.271 0h-.587v-.76h.587zm-37.547 0h-.683v-.76h.683zm-2.64 0h-.587v-.76h.587zm-1.271 0h-.587v-.76h.587zm-1.271 0h-1.27v-.76h.683v-.652h1.27v.652h-.683zm-4.4 0h-.684v-.76h.684zm58.667-.762h-.683V6.52h.684zm-1.27 0h-.684V6.52h.684zm-3.228 0h-.587V6.52h.587zm-3.225 0h-.588V6.52h.588zm-40.091 0h-.684V6.52h.684zm-3.227 0h-.684V6.52h.684zm-1.271 0h-.684V6.52h.684zm-3.813 0h-.684V6.52h.684zm-1.955 0h-.587V6.52h.587zm63.164-.651h-.683v-.76h.683zm-3.225 0h-.587v-.76h.587zm-5.086 0h-.587v-.76h.587zm-9.582 0h-.587v-.76h.587zm-1.271 0h-.587v-.76h.587zm-41.458 0h-.587V5.11h.587zm-1.858 0h-.684V5.11h1.271v.652h-.587v.762zm59.939-.761h-.684v-.653h.684zm-3.813 0h-.684v-.653h.684zm-6.453 0h-.588v-.653h.588zm-1.858 0h-.684v-.653h.684zm-35.691 0h-.684v-.653h.684zm-7.724 0h-.587v-.653h.587zm-1.271 0h-.587v-.653h.587zm-4.4 0h-1.955v-.653h1.955zm-2.542 0h-.684v-.653h.684zm61.209-.653h-.683v-.76h.684zm-3.227 0h-.587v-.76h.587zm-2.542 0h-.683v-.76h.683zm-5.769 0h-.587v-.76h.587zm-3.129 0h-.684v-.76h.684zm-41.458 0h-.684v-.76h.684zm-1.955 0h-.587v-.76h.587zm55.539-.759h-.684v-.653h.684zm-2.544 0h-.684v-.653h.684zm-5.767 0h-.684v-.653h.684zm-1.957 0h-.587v-.653h.587zm-3.813 0h-.587v-.653h.587zm-38.232 0h-.684v-.653h.684zm-2.542 0h-.684v-.653h.684zm-1.956 0h-.588v-.653h.588zm-1.271 0h-.588V2.934h.588zm-1.857 0h-.683V2.934h1.27v.762h-.587v.653zm52.899-.653h-.684v-.762h.684zm-4.499 0h-.587v-.762h.587zm-1.27 0h-.588v-.762h.587zm-36.962 0h-.684v-.762h.684zm-4.497 0h-.587v-.762h.587zm-1.271 0h-1.27v-.762h1.27zm-5.672 0h-.684v-.762h.684zm-1.368 0h-.587v-.762h.587zm65.708-.76h-.587v-.652h.587zm-5.086 0h-.587v-.652h.587zm-8.898 0h-.684v-.652h.684zm-5.084 0h-.684v-.652h.684zm-40.872 0h-1.271v-.652h1.27zm-5.084 0h-.684V1.522h.684zm-1.955 0h-.587v-.652h.587zm64.435-.652h-.587v-.76h.587zm-1.271 0h-.587v-.76h.587zm-3.813 0h-.683v-.76h.683zm-4.498 0h-.587v-.76h.587zm-1.271 0h-.587v-.76h.587zm-3.129 0h-.684v-.76h.684zm-1.272 0h-.683v-.76h.684zm-41.457 0h-.684v-.76h.684zm-1.956 0h-.588v-.76h.588zm-1.272 0h-1.857v-.76h1.27V.869h1.271v.653h-.684zm-5.769 0h-.587v-.76h.587Zm61.895-.76h-.683V.869h.683zm-5.083 0h-.684V.869h.684zm-4.498 0h-.588V.869h.587zm-41.459 0h-.587V.869h.587zm-6.943 0h-.684V.869h.684zm-1.955 0h-.684V.869h.684zm-1.271 0h-.684V.11h.684zm-1.957 0h-.587V.869h.587zM117.31.87h-.587V.106h.587zm-2.542 0h-.587V.106h.587zm-5.085 0h-.684V.106h.684z" style="stroke-width:.264583"/><path d="M68.225.87h-.587V.106h.587zm-5.084 0h-.684V.106h.684zm-1.957 0h-.587V.106h.587z" style="stroke-width:.264583"/></g><path fill="#121212" d="M0 0h68v160H0z"/><g fill="#fff"><path d="M13.312 34.048h3.072v-1.536h-3.072zm-1.536-4.608h1.536v-1.536H10.24v9.216h1.536v-1.536h1.536v-1.536h-1.536zm23.04 3.072v1.536h3.072v-1.536zm3.072-4.608v1.536h1.536v4.608h-1.536v1.536h1.536v1.536h1.536v-9.216zm-15.36-12.288h1.536V14.08h3.072v1.536h1.536v1.536h1.536V14.08h-1.536v-1.536h-6.144v1.536h-1.536v3.072h1.536zm9.216 6.144v-4.608h-1.536v4.608zm-10.752-4.608h-1.536v3.072h1.536z"/><path d="M33.28 30.976v-4.608h1.536v1.536h3.072v-1.536h-1.536v-1.536H33.28V21.76h-1.536v12.288H19.456V20.224H17.92v4.608h-3.072v1.536h-1.536v1.536h3.072v-1.536h1.536v4.608h-1.536v1.536h1.536v3.072h1.536v3.072h10.752V37.12h1.536v-1.536h1.536v-3.072h1.536v-1.536zm-4.608 6.144h-7.68v-1.536h7.68z"/><path d="M23.84 24.611h-1.288v5.925h5.62v-1.149H23.84zm4.331-1.14c-.629 0-1.149.511-1.149 1.14s.512 1.149 1.15 1.149 1.148-.512 1.148-1.149a1.154 1.154 0 0 0-1.149-1.14"/></g></svg>