<svg width="320" height="320" viewBox="0 0 320 320" fill="none" xmlns="http://www.w3.org/2000/svg">
<g clip-path="url(#clip0_689_185)">
<rect width="320" height="320" fill="#121212"/>
<path d="M83.2 212.8H102.4V203.2H83.2V212.8Z" fill="white"/>
<path d="M73.6 184H83.2V174.4H64V232H73.6V222.4H83.2V212.8H73.6V184Z" fill="white"/>
<path d="M217.6 203.2V212.8H236.8V203.2H217.6Z" fill="white"/>
<path d="M236.8 174.4V184H246.4V212.8H236.8V222.4H246.4V232H256V174.4H236.8Z" fill="white"/>
<path d="M140.8 97.5999H150.4V87.9999H169.6V97.5999H179.2V107.2H188.8V87.9999H179.2V78.3999H140.8V87.9999H131.2V107.2H140.8V97.5999Z" fill="white"/>
<path d="M198.4 136V107.2H188.8V136H198.4Z" fill="white"/>
<path d="M131.2 107.2H121.6V126.4H131.2V107.2Z" fill="white"/>
<path d="M208 193.6V164.8H217.6V174.4H236.8V164.8H227.2V155.2H208V136H198.4V212.8H121.6V126.4H112V155.2H92.8V164.8H83.2V174.4H102.4V164.8H112V193.6H102.4V203.2H112V222.4H121.6V241.6H188.8V232H198.4V222.4H208V203.2H217.6V193.6H208ZM179.2 232H131.2V222.4H179.2V232Z" fill="white"/>
<path d="M149 153.82H140.95V190.85H176.07V183.67H149V153.82Z" fill="white"/>
<path d="M176.07 146.69C172.14 146.69 168.89 149.89 168.89 153.82C168.89 157.75 172.09 161 176.07 161C180.05 161 183.25 157.8 183.25 153.82C183.2 149.89 180 146.69 176.07 146.69Z" fill="white"/>
<path d="M128 21.33V42.67H149.33V21.33V0H128V21.33Z" fill="#61DFFF"/>
<path d="M213.33 21.33V0H192H170.67V21.33H192H213.33Z" fill="#61DFFF"/>
<path d="M64 85.3301H85.33V64.0001H106.67V42.6701H85.33H64V21.3301H42.67V42.6701V64.0001H64V85.3301Z" fill="#61DFFF"/>
<path d="M234.67 63.9999V42.6699H213.33V63.9999V85.3299H234.67V63.9999Z" fill="#61DFFF"/>
<path d="M0 85.33V106.67H21.33V85.33V64H0V85.33Z" fill="#61DFFF"/>
<path d="M64 106.67H42.67V128H64V106.67Z" fill="#61DFFF"/>
<path d="M42.67 234.66H21.34V256H42.67V234.66Z" fill="#61DFFF"/>
<path d="M0 21.33V42.67H21.33V21.33V0H0V21.33Z" fill="#61DFFF"/>
<path d="M298.67 0V21.33H277.33V0H256V21.33V42.67V64H277.33V85.33V106.67H298.67V85.33V64V42.67H320V21.33V0H298.67Z" fill="#61DFFF"/>
<path d="M277.33 170.67V192V213.33H298.67V192H320V170.67H298.67H277.33Z" fill="#61DFFF"/>
<path d="M0 213.33V234.67H21.33V213.33V192H0V213.33Z" fill="#61DFFF"/>
<path d="M0 277.33V298.67H21.33V277.33V256H0V277.33Z" fill="#61DFFF"/>
<path d="M85.34 277.33H42.67V320H64V298.66H106.67V256H85.34V277.33Z" fill="#61DFFF"/>
<path d="M128 298.67H106.67V320H128V298.67Z" fill="#61DFFF"/>
<path d="M170.67 298.67V320H192H213.33V298.67H192H170.67Z" fill="#61DFFF"/>
<path d="M298.67 277.33V256V234.67H277.33V256H256H234.67V277.33V298.67H256H277.33V277.33H298.67Z" fill="#61DFFF"/>
<path d="M298.67 298.67H277.33V320H298.67H320V298.67V277.33H298.67V298.67Z" fill="#61DFFF"/>
</g>
<defs>
<clipPath id="clip0_689_185">
<rect width="320" height="320" fill="white"/>
</clipPath>
</defs>
</svg>
