<svg width="860" height="860" viewBox="0 0 860 860" fill="none" xmlns="http://www.w3.org/2000/svg"><path fill="#61DFFF" d="M0 0h860v860H0z"/><path d="M574.688 552.365h-38.723V308.161h97.681q37.329 0 60.703 21.979 23.373 21.978 23.373 55.469 0 33.142-23.373 54.771-23.374 21.63-60.703 21.63h-58.958zm0-209.666v84.773h58.958q19.537 0 31.747-11.861 12.56-12.21 12.559-30.351 0-18.49-12.559-30.351-12.21-12.21-31.747-12.21zm-99.526-34.538h45.701l-88.611 121.753 88.611 122.451h-46.748l-65.586-92.099-65.935 92.099h-46.05l88.96-121.753-88.96-122.451h47.096l65.587 91.402z" fill="#000"/><path d="M323.276 552.366H166.985V308.161h38.724v209.667h117.567z" fill="#000"/></svg>